<?xml version="1.0" encoding="utf-8"?>
<!-- Generator: Adobe Illustrator 19.1.0, SVG Export Plug-In . SVG Version: 6.00 Build 0)  -->
<svg version="1.1" id="Layer_1" xmlns="http://www.w3.org/2000/svg" xmlns:xlink="http://www.w3.org/1999/xlink" x="0px" y="0px"
	 viewBox="0 0 960 560" style="enable-background:new 0 0 960 560;" xml:space="preserve">
<style type="text/css">
	.st0{clip-path:url(#SVGID_2_);}
	.st1{clip-path:url(#SVGID_4_);}
	.st2{clip-path:url(#SVGID_6_);}
	.st3{clip-path:url(#SVGID_8_);}
	.st4{clip-path:url(#SVGID_10_);}
	.st5{clip-path:url(#SVGID_12_);}
	.st6{clip-path:url(#SVGID_14_);}
	.st7{clip-path:url(#SVGID_16_);}
	.st8{clip-path:url(#SVGID_18_);}
	.st9{clip-path:url(#SVGID_20_);}
	.st10{fill:#2980B9;}
	.st11{font-family:'HelveticaNeue-Light';}
	.st12{font-size:16.2369px;}
	.st13{fill:none;}
	.st14{fill:#E74C3C;}
	.st15{fill:none;stroke:#E74C3C;stroke-miterlimit:10;}
	.st16{clip-path:url(#SVGID_22_);fill:#0E0F0F;}
	.st17{clip-path:url(#SVGID_24_);fill:#0E0F0F;}
	.st18{clip-path:url(#SVGID_26_);fill:#0E0F0F;}
	.st19{clip-path:url(#SVGID_28_);fill:#0E0F0F;}
	.st20{clip-path:url(#SVGID_30_);fill:#0E0F0F;}
	.st21{clip-path:url(#SVGID_32_);fill:#0E0F0F;}
	.st22{clip-path:url(#SVGID_34_);fill:#0E0F0F;}
	.st23{clip-path:url(#SVGID_36_);fill:#0E0F0F;}
	.st24{clip-path:url(#SVGID_38_);fill:#0E0F0F;}
	.st25{clip-path:url(#SVGID_40_);fill:#0E0F0F;}
	.st26{clip-path:url(#SVGID_42_);fill:#0E0F0F;}
	.st27{clip-path:url(#SVGID_44_);fill:#0E0F0F;}
	.st28{clip-path:url(#SVGID_46_);fill:#0E0F0F;}
	.st29{clip-path:url(#SVGID_48_);fill:#0E0F0F;}
	.st30{clip-path:url(#SVGID_50_);fill:#0E0F0F;}
	.st31{clip-path:url(#SVGID_52_);fill:#0E0F0F;}
	.st32{clip-path:url(#SVGID_54_);fill:#0E0F0F;}
	.st33{clip-path:url(#SVGID_56_);fill:#0E0F0F;}
	.st34{clip-path:url(#SVGID_58_);fill:#0E0F0F;}
	.st35{clip-path:url(#SVGID_60_);fill:#0E0F0F;}
	.st36{clip-path:url(#SVGID_62_);fill:#0E0F0F;}
	.st37{clip-path:url(#SVGID_64_);fill:#0E0F0F;}
	.st38{fill:#3498DB;}
	.st39{font-size:18px;}
	.st40{font-size:24px;}
</style>
<g>
	<g>
		<defs>
			<rect id="SVGID_1_" x="50.7" y="197.6" width="70.8" height="64.9"/>
		</defs>
		<clipPath id="SVGID_2_">
			<use xlink:href="#SVGID_1_"  style="overflow:visible;"/>
		</clipPath>
		<path class="st0" d="M70.1,206.6c0-5,4.1-9.1,9.1-9.1c5,0,9.1,4.1,9.1,9.1c0,5-4.1,9.1-9.1,9.1C74.2,215.7,70.1,211.6,70.1,206.6
			L70.1,206.6z M83.6,221.9c0.1-2,0.8-3.8,1.9-5.3c-0.8-0.2-1.6-0.2-2.4-0.2h-7.7c-0.8,0-1.6,0.1-2.4,0.2c1.2,1.6,1.9,3.6,1.9,5.7
			c1.4-0.8,3-1.2,4.8-1.2C81,221,82.4,221.3,83.6,221.9L83.6,221.9z M85.1,222.7c2.6,1.7,4.5,4.5,4.8,7.7c1.1,0.5,2.3,0.8,3.5,0.8
			c4.6,0,8.4-3.8,8.4-8.4s-3.7-8.4-8.4-8.4C88.9,214.4,85.2,218.1,85.1,222.7L85.1,222.7z M79.6,239.8c4.6,0,8.4-3.7,8.4-8.4
			c0-4.6-3.7-8.4-8.4-8.4c-4.6,0-8.4,3.7-8.4,8.4C71.2,236.1,75,239.8,79.6,239.8L79.6,239.8z M83.2,240.4h-7.1
			c-5.9,0-10.7,4.8-10.7,10.7v8.7l0,0.1l0.6,0.2c5.6,1.8,10.5,2.4,14.6,2.4c7.9,0,12.4-2.2,12.7-2.4l0.6-0.3h0.1v-8.7
			C93.9,245.2,89.1,240.4,83.2,240.4L83.2,240.4z M97,231.7h-7c-0.1,2.8-1.3,5.4-3.2,7.2c5.2,1.6,9.1,6.4,9.1,12.2v2.7
			c7-0.3,11-2.2,11.2-2.4l0.6-0.3h0.1v-8.7C107.7,236.5,102.9,231.7,97,231.7L97,231.7z M98.9,214.2c2.6,1.7,4.5,4.5,4.8,7.7
			c1.1,0.5,2.3,0.8,3.5,0.8c4.6,0,8.4-3.7,8.4-8.4c0-4.6-3.7-8.4-8.4-8.4C102.7,206,99,209.7,98.9,214.2L98.9,214.2z M110.8,223.3
			h-7c-0.1,2.8-1.3,5.4-3.2,7.2c5.3,1.6,9.1,6.4,9.1,12.2v2.7c7-0.3,11-2.2,11.2-2.4l0.6-0.3h0.1V234
			C121.5,228.1,116.7,223.3,110.8,223.3L110.8,223.3z M64.9,231.2c1.6,0,3.2-0.5,4.5-1.3c0.4-2.7,1.8-5,3.9-6.6c0-0.2,0-0.3,0-0.5
			c0-4.6-3.7-8.4-8.4-8.4s-8.4,3.7-8.4,8.4C56.6,227.4,60.3,231.2,64.9,231.2L64.9,231.2z M72.4,238.9c-1.9-1.8-3.1-4.3-3.2-7.1
			c-0.3,0-0.5,0-0.8,0h-7.1c-5.9,0-10.7,4.8-10.7,10.7v8.7l0,0.1l0.6,0.2c4.5,1.4,8.6,2.1,12.1,2.3v-2.6
			C63.4,245.3,67.2,240.5,72.4,238.9L72.4,238.9z M72.4,238.9"/>
	</g>
</g>
<g>
	<g>
		<defs>
			<rect id="SVGID_3_" x="58.6" y="288.5" width="70.8" height="64.9"/>
		</defs>
		<clipPath id="SVGID_4_">
			<use xlink:href="#SVGID_3_"  style="overflow:visible;"/>
		</clipPath>
		<path class="st1" d="M78,297.5c0-5,4.1-9.1,9.1-9.1c5,0,9.1,4.1,9.1,9.1c0,5-4.1,9.1-9.1,9.1C82.1,306.6,78,302.5,78,297.5
			L78,297.5z M91.5,312.7c0.1-2,0.8-3.8,1.9-5.3c-0.8-0.2-1.6-0.2-2.4-0.2h-7.7c-0.8,0-1.6,0.1-2.4,0.2c1.2,1.6,1.9,3.6,1.9,5.7
			c1.4-0.8,3-1.2,4.8-1.2C88.9,311.9,90.2,312.2,91.5,312.7L91.5,312.7z M93,313.6c2.6,1.7,4.5,4.5,4.8,7.7c1.1,0.5,2.3,0.8,3.5,0.8
			c4.6,0,8.4-3.8,8.4-8.4s-3.7-8.4-8.4-8.4C96.8,305.3,93.1,309,93,313.6L93,313.6z M87.5,330.7c4.6,0,8.4-3.7,8.4-8.4
			c0-4.6-3.7-8.4-8.4-8.4c-4.6,0-8.4,3.7-8.4,8.4C79.1,326.9,82.9,330.7,87.5,330.7L87.5,330.7z M91.1,331.3H84
			c-5.9,0-10.7,4.8-10.7,10.7v8.7l0,0.1l0.6,0.2c5.6,1.8,10.5,2.4,14.6,2.4c7.9,0,12.4-2.2,12.7-2.4l0.6-0.3h0.1V342
			C101.8,336.1,97,331.3,91.1,331.3L91.1,331.3z M104.9,322.6h-7c-0.1,2.8-1.3,5.4-3.2,7.2c5.2,1.6,9.1,6.4,9.1,12.2v2.7
			c7-0.3,11-2.2,11.2-2.4l0.6-0.3h0.1v-8.7C115.6,327.4,110.8,322.6,104.9,322.6L104.9,322.6z M106.8,305.1c2.6,1.7,4.5,4.5,4.8,7.7
			c1.1,0.5,2.3,0.8,3.5,0.8c4.6,0,8.4-3.7,8.4-8.4c0-4.6-3.7-8.4-8.4-8.4C110.6,296.9,106.9,300.6,106.8,305.1L106.8,305.1z
			 M118.7,314.2h-7c-0.1,2.8-1.3,5.4-3.2,7.2c5.3,1.6,9.1,6.4,9.1,12.2v2.7c7-0.3,11-2.2,11.2-2.4l0.6-0.3h0.1v-8.7
			C129.4,319,124.6,314.2,118.7,314.2L118.7,314.2z M72.8,322.1c1.6,0,3.2-0.5,4.5-1.3c0.4-2.7,1.8-5,3.9-6.6c0-0.2,0-0.3,0-0.5
			c0-4.6-3.7-8.4-8.4-8.4s-8.4,3.7-8.4,8.4C64.5,318.3,68.2,322.1,72.8,322.1L72.8,322.1z M80.3,329.8c-1.9-1.8-3.1-4.3-3.2-7.1
			c-0.3,0-0.5,0-0.8,0h-7.1c-5.9,0-10.7,4.8-10.7,10.7v8.7l0,0.1l0.6,0.2c4.5,1.4,8.6,2.1,12.1,2.3V342
			C71.2,336.2,75.1,331.4,80.3,329.8L80.3,329.8z M80.3,329.8"/>
	</g>
</g>
<g>
	<g>
		<defs>
			<rect id="SVGID_5_" x="195.8" y="109.3" width="70.8" height="64.9"/>
		</defs>
		<clipPath id="SVGID_6_">
			<use xlink:href="#SVGID_5_"  style="overflow:visible;"/>
		</clipPath>
		<path class="st2" d="M215.3,118.2c0-5,4.1-9.1,9.1-9.1c5,0,9.1,4.1,9.1,9.1c0,5-4.1,9.1-9.1,9.1
			C219.3,127.3,215.3,123.3,215.3,118.2L215.3,118.2z M228.7,133.5c0.1-2,0.8-3.8,1.9-5.3c-0.8-0.2-1.6-0.2-2.4-0.2h-7.7
			c-0.8,0-1.6,0.1-2.4,0.2c1.2,1.6,1.9,3.6,1.9,5.7c1.4-0.8,3-1.2,4.8-1.2C226.2,132.7,227.5,133,228.7,133.5L228.7,133.5z
			 M230.3,134.3c2.6,1.7,4.5,4.5,4.8,7.7c1.1,0.5,2.3,0.8,3.5,0.8c4.6,0,8.4-3.8,8.4-8.4s-3.7-8.4-8.4-8.4
			C234,126.1,230.3,129.8,230.3,134.3L230.3,134.3z M224.8,151.5c4.6,0,8.4-3.7,8.4-8.4c0-4.6-3.7-8.4-8.4-8.4
			c-4.6,0-8.4,3.7-8.4,8.4C216.4,147.7,220.2,151.5,224.8,151.5L224.8,151.5z M228.3,152h-7.1c-5.9,0-10.7,4.8-10.7,10.7v8.7l0,0.1
			l0.6,0.2c5.6,1.8,10.5,2.4,14.6,2.4c7.9,0,12.4-2.2,12.7-2.4l0.6-0.3h0.1v-8.7C239,156.8,234.2,152,228.3,152L228.3,152z
			 M242.2,143.4h-7c-0.1,2.8-1.3,5.4-3.2,7.2c5.2,1.6,9.1,6.4,9.1,12.2v2.7c7-0.3,11-2.2,11.2-2.4l0.6-0.3h0.1v-8.7
			C252.9,148.2,248.1,143.4,242.2,143.4L242.2,143.4z M244.1,125.9c2.6,1.7,4.5,4.5,4.8,7.7c1.1,0.5,2.3,0.8,3.5,0.8
			c4.6,0,8.4-3.7,8.4-8.4c0-4.6-3.7-8.4-8.4-8.4C247.8,117.7,244.1,121.4,244.1,125.9L244.1,125.9z M256,135h-7
			c-0.1,2.8-1.3,5.4-3.2,7.2c5.3,1.6,9.1,6.4,9.1,12.2v2.7c7-0.3,11-2.2,11.2-2.4l0.6-0.3h0.1v-8.7C266.7,139.8,261.9,135,256,135
			L256,135z M210.1,142.8c1.6,0,3.2-0.5,4.5-1.3c0.4-2.7,1.8-5,3.9-6.6c0-0.2,0-0.3,0-0.5c0-4.6-3.7-8.4-8.4-8.4s-8.4,3.7-8.4,8.4
			C201.7,139.1,205.5,142.8,210.1,142.8L210.1,142.8z M217.6,150.6c-1.9-1.8-3.1-4.3-3.2-7.1c-0.3,0-0.5,0-0.8,0h-7.1
			c-5.9,0-10.7,4.8-10.7,10.7v8.7l0,0.1l0.6,0.2c4.5,1.4,8.6,2.1,12.1,2.3v-2.6C208.5,157,212.4,152.1,217.6,150.6L217.6,150.6z
			 M217.6,150.6"/>
	</g>
</g>
<g>
	<g>
		<defs>
			<rect id="SVGID_7_" x="107.9" y="363" width="70.8" height="64.9"/>
		</defs>
		<clipPath id="SVGID_8_">
			<use xlink:href="#SVGID_7_"  style="overflow:visible;"/>
		</clipPath>
		<path class="st3" d="M127.4,371.9c0-5,4.1-9.1,9.1-9.1c5,0,9.1,4.1,9.1,9.1c0,5-4.1,9.1-9.1,9.1
			C131.5,381,127.4,376.9,127.4,371.9L127.4,371.9z M140.8,387.2c0.1-2,0.8-3.8,1.9-5.3c-0.8-0.2-1.6-0.2-2.4-0.2h-7.7
			c-0.8,0-1.6,0.1-2.4,0.2c1.2,1.6,1.9,3.6,1.9,5.7c1.4-0.8,3-1.2,4.8-1.2C138.3,386.4,139.6,386.7,140.8,387.2L140.8,387.2z
			 M142.4,388c2.6,1.7,4.5,4.5,4.8,7.7c1.1,0.5,2.3,0.8,3.5,0.8c4.6,0,8.4-3.8,8.4-8.4s-3.7-8.4-8.4-8.4
			C146.2,379.8,142.4,383.4,142.4,388L142.4,388z M136.9,405.1c4.6,0,8.4-3.7,8.4-8.4c0-4.6-3.7-8.4-8.4-8.4c-4.6,0-8.4,3.7-8.4,8.4
			C128.5,401.4,132.3,405.1,136.9,405.1L136.9,405.1z M140.4,405.7h-7.1c-5.9,0-10.7,4.8-10.7,10.7v8.7l0,0.1l0.6,0.2
			c5.6,1.8,10.5,2.4,14.6,2.4c7.9,0,12.4-2.2,12.7-2.4l0.6-0.3h0.1v-8.7C151.2,410.5,146.4,405.7,140.4,405.7L140.4,405.7z
			 M154.3,397.1h-7c-0.1,2.8-1.3,5.4-3.2,7.2c5.2,1.6,9.1,6.4,9.1,12.2v2.7c7-0.3,11-2.2,11.2-2.4l0.6-0.3h0.1v-8.7
			C165,401.9,160.2,397.1,154.3,397.1L154.3,397.1z M156.2,379.6c2.6,1.7,4.5,4.5,4.8,7.7c1.1,0.5,2.3,0.8,3.5,0.8
			c4.6,0,8.4-3.7,8.4-8.4c0-4.6-3.7-8.4-8.4-8.4C160,371.3,156.2,375,156.2,379.6L156.2,379.6z M168.1,388.6h-7
			c-0.1,2.8-1.3,5.4-3.2,7.2c5.3,1.6,9.1,6.4,9.1,12.2v2.7c7-0.3,11-2.2,11.2-2.4l0.6-0.3h0.1v-8.7
			C178.8,393.5,174,388.6,168.1,388.6L168.1,388.6z M122.2,396.5c1.6,0,3.2-0.5,4.5-1.3c0.4-2.7,1.8-5,3.9-6.6c0-0.2,0-0.3,0-0.5
			c0-4.6-3.7-8.4-8.4-8.4s-8.4,3.7-8.4,8.4C113.8,392.8,117.6,396.5,122.2,396.5L122.2,396.5z M129.7,404.3
			c-1.9-1.8-3.1-4.3-3.2-7.1c-0.3,0-0.5,0-0.8,0h-7.1c-5.9,0-10.7,4.8-10.7,10.7v8.7l0,0.1l0.6,0.2c4.5,1.4,8.6,2.1,12.1,2.3v-2.6
			C120.6,410.7,124.5,405.8,129.7,404.3L129.7,404.3z M129.7,404.3"/>
	</g>
</g>
<g>
	<g>
		<defs>
			<rect id="SVGID_9_" x="295.8" y="350" width="70.8" height="64.9"/>
		</defs>
		<clipPath id="SVGID_10_">
			<use xlink:href="#SVGID_9_"  style="overflow:visible;"/>
		</clipPath>
		<path class="st4" d="M315.2,358.9c0-5,4.1-9.1,9.1-9.1c5,0,9.1,4.1,9.1,9.1c0,5-4.1,9.1-9.1,9.1
			C319.3,368,315.2,363.9,315.2,358.9L315.2,358.9z M328.7,374.2c0.1-2,0.8-3.8,1.9-5.3c-0.8-0.2-1.6-0.2-2.4-0.2h-7.7
			c-0.8,0-1.6,0.1-2.4,0.2c1.2,1.6,1.9,3.6,1.9,5.7c1.4-0.8,3-1.2,4.8-1.2C326.1,373.4,327.5,373.7,328.7,374.2L328.7,374.2z
			 M330.2,375c2.6,1.7,4.5,4.5,4.8,7.7c1.1,0.5,2.3,0.8,3.5,0.8c4.6,0,8.4-3.8,8.4-8.4s-3.7-8.4-8.4-8.4
			C334,366.8,330.3,370.4,330.2,375L330.2,375z M324.7,392.1c4.6,0,8.4-3.7,8.4-8.4c0-4.6-3.7-8.4-8.4-8.4c-4.6,0-8.4,3.7-8.4,8.4
			C316.4,388.4,320.1,392.1,324.7,392.1L324.7,392.1z M328.3,392.7h-7.1c-5.9,0-10.7,4.8-10.7,10.7v8.7l0,0.1l0.6,0.2
			c5.6,1.8,10.5,2.4,14.6,2.4c7.9,0,12.4-2.2,12.7-2.4l0.6-0.3h0.1v-8.7C339,397.5,334.2,392.7,328.3,392.7L328.3,392.7z
			 M342.1,384.1h-7c-0.1,2.8-1.3,5.4-3.2,7.2c5.2,1.6,9.1,6.4,9.1,12.2v2.7c7-0.3,11-2.2,11.2-2.4l0.6-0.3h0.1v-8.7
			C352.8,388.9,348,384.1,342.1,384.1L342.1,384.1z M344,366.6c2.6,1.7,4.5,4.5,4.8,7.7c1.1,0.5,2.3,0.8,3.5,0.8
			c4.6,0,8.4-3.7,8.4-8.4c0-4.6-3.7-8.4-8.4-8.4C347.8,358.3,344.1,362,344,366.6L344,366.6z M355.9,375.6h-7
			c-0.1,2.8-1.3,5.4-3.2,7.2c5.3,1.6,9.1,6.4,9.1,12.2v2.7c7-0.3,11-2.2,11.2-2.4l0.6-0.3h0.1v-8.7
			C366.6,380.5,361.8,375.6,355.9,375.6L355.9,375.6z M310,383.5c1.6,0,3.2-0.5,4.5-1.3c0.4-2.7,1.8-5,3.9-6.6c0-0.2,0-0.3,0-0.5
			c0-4.6-3.7-8.4-8.4-8.4s-8.4,3.7-8.4,8.4C301.7,379.8,305.4,383.5,310,383.5L310,383.5z M317.6,391.3c-1.9-1.8-3.1-4.3-3.2-7.1
			c-0.3,0-0.5,0-0.8,0h-7.1c-5.9,0-10.7,4.8-10.7,10.7v8.7l0,0.1l0.6,0.2c4.5,1.4,8.6,2.1,12.1,2.3v-2.6
			C308.5,397.7,312.3,392.8,317.6,391.3L317.6,391.3z M317.6,391.3"/>
	</g>
</g>
<g>
	<g>
		<defs>
			<rect id="SVGID_11_" x="203.7" y="381.9" width="70.8" height="64.9"/>
		</defs>
		<clipPath id="SVGID_12_">
			<use xlink:href="#SVGID_11_"  style="overflow:visible;"/>
		</clipPath>
		<path class="st5" d="M223.1,390.8c0-5,4.1-9.1,9.1-9.1c5,0,9.1,4.1,9.1,9.1c0,5-4.1,9.1-9.1,9.1
			C227.2,399.9,223.1,395.8,223.1,390.8L223.1,390.8z M236.6,406.1c0.1-2,0.8-3.8,1.9-5.3c-0.8-0.2-1.6-0.2-2.4-0.2h-7.7
			c-0.8,0-1.6,0.1-2.4,0.2c1.2,1.6,1.9,3.6,1.9,5.7c1.4-0.8,3-1.2,4.8-1.2C234,405.3,235.4,405.6,236.6,406.1L236.6,406.1z
			 M238.1,406.9c2.6,1.7,4.5,4.5,4.8,7.7c1.1,0.5,2.3,0.8,3.5,0.8c4.6,0,8.4-3.8,8.4-8.4s-3.7-8.4-8.4-8.4
			C241.9,398.6,238.2,402.3,238.1,406.9L238.1,406.9z M232.6,424c4.6,0,8.4-3.7,8.4-8.4c0-4.6-3.7-8.4-8.4-8.4
			c-4.6,0-8.4,3.7-8.4,8.4C224.2,420.3,228,424,232.6,424L232.6,424z M236.2,424.6h-7.1c-5.9,0-10.7,4.8-10.7,10.7v8.7l0,0.1
			l0.6,0.2c5.6,1.8,10.5,2.4,14.6,2.4c7.9,0,12.4-2.2,12.7-2.4l0.6-0.3h0.1v-8.7C246.9,429.4,242.1,424.6,236.2,424.6L236.2,424.6z
			 M250,416h-7c-0.1,2.8-1.3,5.4-3.2,7.2c5.2,1.6,9.1,6.4,9.1,12.2v2.7c7-0.3,11-2.2,11.2-2.4l0.6-0.3h0.1v-8.7
			C260.7,420.8,255.9,416,250,416L250,416z M251.9,398.5c2.6,1.7,4.5,4.5,4.8,7.7c1.1,0.5,2.3,0.8,3.5,0.8c4.6,0,8.4-3.7,8.4-8.4
			c0-4.6-3.7-8.4-8.4-8.4C255.7,390.2,252,393.9,251.9,398.5L251.9,398.5z M263.8,407.5h-7c-0.1,2.8-1.3,5.4-3.2,7.2
			c5.3,1.6,9.1,6.4,9.1,12.2v2.7c7-0.3,11-2.2,11.2-2.4l0.6-0.3h0.1v-8.7C274.5,412.3,269.7,407.5,263.8,407.5L263.8,407.5z
			 M217.9,415.4c1.6,0,3.2-0.5,4.5-1.3c0.4-2.7,1.8-5,3.9-6.6c0-0.2,0-0.3,0-0.5c0-4.6-3.7-8.4-8.4-8.4s-8.4,3.7-8.4,8.4
			C209.6,411.6,213.3,415.4,217.9,415.4L217.9,415.4z M225.4,423.1c-1.9-1.8-3.1-4.3-3.2-7.1c-0.3,0-0.5,0-0.8,0h-7.1
			c-5.9,0-10.7,4.8-10.7,10.7v8.7l0,0.1l0.6,0.2c4.5,1.4,8.6,2.1,12.1,2.3v-2.6C216.4,429.6,220.2,424.7,225.4,423.1L225.4,423.1z
			 M225.4,423.1"/>
	</g>
</g>
<g>
	<g>
		<defs>
			<rect id="SVGID_13_" x="295.8" y="133.2" width="70.8" height="64.9"/>
		</defs>
		<clipPath id="SVGID_14_">
			<use xlink:href="#SVGID_13_"  style="overflow:visible;"/>
		</clipPath>
		<path class="st6" d="M315.2,142.1c0-5,4.1-9.1,9.1-9.1c5,0,9.1,4.1,9.1,9.1c0,5-4.1,9.1-9.1,9.1
			C319.3,151.2,315.2,147.2,315.2,142.1L315.2,142.1z M328.7,157.4c0.1-2,0.8-3.8,1.9-5.3c-0.8-0.2-1.6-0.2-2.4-0.2h-7.7
			c-0.8,0-1.6,0.1-2.4,0.2c1.2,1.6,1.9,3.6,1.9,5.7c1.4-0.8,3-1.2,4.8-1.2C326.1,156.6,327.5,156.9,328.7,157.4L328.7,157.4z
			 M330.2,158.2c2.6,1.7,4.5,4.5,4.8,7.7c1.1,0.5,2.3,0.8,3.5,0.8c4.6,0,8.4-3.8,8.4-8.4s-3.7-8.4-8.4-8.4
			C334,150,330.3,153.7,330.2,158.2L330.2,158.2z M324.7,175.4c4.6,0,8.4-3.7,8.4-8.4c0-4.6-3.7-8.4-8.4-8.4c-4.6,0-8.4,3.7-8.4,8.4
			C316.4,171.6,320.1,175.4,324.7,175.4L324.7,175.4z M328.3,175.9h-7.1c-5.9,0-10.7,4.8-10.7,10.7v8.7l0,0.1l0.6,0.2
			c5.6,1.8,10.5,2.4,14.6,2.4c7.9,0,12.4-2.2,12.7-2.4l0.6-0.3h0.1v-8.7C339,180.7,334.2,175.9,328.3,175.9L328.3,175.9z
			 M342.1,167.3h-7c-0.1,2.8-1.3,5.4-3.2,7.2c5.2,1.6,9.1,6.4,9.1,12.2v2.7c7-0.3,11-2.2,11.2-2.4l0.6-0.3h0.1V178
			C352.8,172.1,348,167.3,342.1,167.3L342.1,167.3z M344,149.8c2.6,1.7,4.5,4.5,4.8,7.7c1.1,0.5,2.3,0.8,3.5,0.8
			c4.6,0,8.4-3.7,8.4-8.4c0-4.6-3.7-8.4-8.4-8.4C347.8,141.6,344.1,145.2,344,149.8L344,149.8z M355.9,158.9h-7
			c-0.1,2.8-1.3,5.4-3.2,7.2c5.3,1.6,9.1,6.4,9.1,12.2v2.7c7-0.3,11-2.2,11.2-2.4l0.6-0.3h0.1v-8.7
			C366.6,163.7,361.8,158.9,355.9,158.9L355.9,158.9z M310,166.7c1.6,0,3.2-0.5,4.5-1.3c0.4-2.7,1.8-5,3.9-6.6c0-0.2,0-0.3,0-0.5
			c0-4.6-3.7-8.4-8.4-8.4s-8.4,3.7-8.4,8.4C301.7,163,305.4,166.7,310,166.7L310,166.7z M317.6,174.5c-1.9-1.8-3.1-4.3-3.2-7.1
			c-0.3,0-0.5,0-0.8,0h-7.1c-5.9,0-10.7,4.8-10.7,10.7v8.7l0,0.1l0.6,0.2c4.5,1.4,8.6,2.1,12.1,2.3v-2.6
			C308.5,180.9,312.3,176,317.6,174.5L317.6,174.5z M317.6,174.5"/>
	</g>
</g>
<g>
	<g>
		<defs>
			<rect id="SVGID_15_" x="337.8" y="202" width="70.8" height="64.9"/>
		</defs>
		<clipPath id="SVGID_16_">
			<use xlink:href="#SVGID_15_"  style="overflow:visible;"/>
		</clipPath>
		<path class="st7" d="M357.3,210.9c0-5,4.1-9.1,9.1-9.1c5,0,9.1,4.1,9.1,9.1c0,5-4.1,9.1-9.1,9.1
			C361.3,220,357.3,215.9,357.3,210.9L357.3,210.9z M370.7,226.2c0.1-2,0.8-3.8,1.9-5.3c-0.8-0.2-1.6-0.2-2.4-0.2h-7.7
			c-0.8,0-1.6,0.1-2.4,0.2c1.2,1.6,1.9,3.6,1.9,5.7c1.4-0.8,3-1.2,4.8-1.2C368.2,225.4,369.5,225.7,370.7,226.2L370.7,226.2z
			 M372.3,227c2.6,1.7,4.5,4.5,4.8,7.7c1.1,0.5,2.3,0.8,3.5,0.8c4.6,0,8.4-3.8,8.4-8.4s-3.7-8.4-8.4-8.4
			C376,218.8,372.3,222.4,372.3,227L372.3,227z M366.8,244.1c4.6,0,8.4-3.7,8.4-8.4c0-4.6-3.7-8.4-8.4-8.4c-4.6,0-8.4,3.7-8.4,8.4
			C358.4,240.4,362.2,244.1,366.8,244.1L366.8,244.1z M370.3,244.7h-7.1c-5.9,0-10.7,4.8-10.7,10.7v8.7l0,0.1l0.6,0.2
			c5.6,1.8,10.5,2.4,14.6,2.4c7.9,0,12.4-2.2,12.7-2.4l0.6-0.3h0.1v-8.7C381,249.5,376.2,244.7,370.3,244.7L370.3,244.7z
			 M384.2,236.1h-7c-0.1,2.8-1.3,5.4-3.2,7.2c5.2,1.6,9.1,6.4,9.1,12.2v2.7c7-0.3,11-2.2,11.2-2.4l0.6-0.3h0.1v-8.7
			C394.9,240.9,390.1,236.1,384.2,236.1L384.2,236.1z M386.1,218.6c2.6,1.7,4.5,4.5,4.8,7.7c1.1,0.5,2.3,0.8,3.5,0.8
			c4.6,0,8.4-3.7,8.4-8.4c0-4.6-3.7-8.4-8.4-8.4C389.8,210.3,386.1,214,386.1,218.6L386.1,218.6z M398,227.6h-7
			c-0.1,2.8-1.3,5.4-3.2,7.2c5.2,1.6,9.1,6.4,9.1,12.2v2.7c7-0.3,11-2.2,11.2-2.4l0.6-0.3h0.1v-8.7
			C408.7,232.5,403.9,227.6,398,227.6L398,227.6z M352.1,235.5c1.6,0,3.2-0.5,4.5-1.3c0.4-2.7,1.8-5,3.9-6.6c0-0.2,0-0.3,0-0.5
			c0-4.6-3.7-8.4-8.4-8.4s-8.4,3.7-8.4,8.4C343.7,231.8,347.5,235.5,352.1,235.5L352.1,235.5z M359.6,243.3
			c-1.9-1.8-3.1-4.3-3.2-7.1c-0.3,0-0.5,0-0.8,0h-7.1c-5.9,0-10.7,4.8-10.7,10.7v8.7l0,0.1l0.6,0.2c4.5,1.4,8.6,2.1,12.1,2.3v-2.6
			C350.5,249.7,354.4,244.8,359.6,243.3L359.6,243.3z M359.6,243.3"/>
	</g>
</g>
<g>
	<g>
		<defs>
			<rect id="SVGID_17_" x="331.3" y="278.4" width="70.8" height="64.9"/>
		</defs>
		<clipPath id="SVGID_18_">
			<use xlink:href="#SVGID_17_"  style="overflow:visible;"/>
		</clipPath>
		<path class="st8" d="M350.7,287.4c0-5,4.1-9.1,9.1-9.1c5,0,9.1,4.1,9.1,9.1c0,5-4.1,9.1-9.1,9.1
			C354.8,296.4,350.7,292.4,350.7,287.4L350.7,287.4z M364.2,302.6c0.1-2,0.8-3.8,1.9-5.3c-0.8-0.2-1.6-0.2-2.4-0.2H356
			c-0.8,0-1.6,0.1-2.4,0.2c1.2,1.6,1.9,3.6,1.9,5.7c1.4-0.8,3-1.2,4.8-1.2C361.6,301.8,363,302.1,364.2,302.6L364.2,302.6z
			 M365.7,303.4c2.6,1.7,4.5,4.5,4.8,7.7c1.1,0.5,2.3,0.8,3.5,0.8c4.6,0,8.4-3.8,8.4-8.4s-3.7-8.4-8.4-8.4
			C369.5,295.2,365.8,298.9,365.7,303.4L365.7,303.4z M360.2,320.6c4.6,0,8.4-3.7,8.4-8.4c0-4.6-3.7-8.4-8.4-8.4
			c-4.6,0-8.4,3.7-8.4,8.4C351.9,316.8,355.6,320.6,360.2,320.6L360.2,320.6z M363.8,321.1h-7.1c-5.9,0-10.7,4.8-10.7,10.7v8.7
			l0,0.1l0.6,0.2c5.6,1.8,10.5,2.4,14.6,2.4c7.9,0,12.4-2.2,12.7-2.4l0.6-0.3h0.1v-8.7C374.5,326,369.7,321.1,363.8,321.1
			L363.8,321.1z M377.6,312.5h-7c-0.1,2.8-1.3,5.4-3.2,7.2c5.2,1.6,9.1,6.4,9.1,12.2v2.7c7-0.3,11-2.2,11.2-2.4l0.6-0.3h0.1v-8.7
			C388.3,317.3,383.5,312.5,377.6,312.5L377.6,312.5z M379.5,295c2.6,1.7,4.5,4.5,4.8,7.7c1.1,0.5,2.3,0.8,3.5,0.8
			c4.6,0,8.4-3.7,8.4-8.4c0-4.6-3.7-8.4-8.4-8.4C383.3,286.8,379.6,290.5,379.5,295L379.5,295z M391.4,304.1h-7
			c-0.1,2.8-1.3,5.4-3.2,7.2c5.3,1.6,9.1,6.4,9.1,12.2v2.7c7-0.3,11-2.2,11.2-2.4l0.6-0.3h0.1v-8.7
			C402.1,308.9,397.3,304.1,391.4,304.1L391.4,304.1z M345.5,311.9c1.6,0,3.2-0.5,4.5-1.3c0.4-2.7,1.8-5,3.9-6.6c0-0.2,0-0.3,0-0.5
			c0-4.6-3.7-8.4-8.4-8.4s-8.4,3.7-8.4,8.4C337.2,308.2,340.9,311.9,345.5,311.9L345.5,311.9z M353.1,319.7
			c-1.9-1.8-3.1-4.3-3.2-7.1c-0.3,0-0.5,0-0.8,0H342c-5.9,0-10.7,4.8-10.7,10.7v8.7l0,0.1l0.6,0.2c4.5,1.4,8.6,2.1,12.1,2.3v-2.6
			C344,326.1,347.8,321.3,353.1,319.7L353.1,319.7z M353.1,319.7"/>
	</g>
</g>
<g>
	<g>
		<defs>
			<rect id="SVGID_19_" x="101.8" y="129.4" width="70.8" height="64.9"/>
		</defs>
		<clipPath id="SVGID_20_">
			<use xlink:href="#SVGID_19_"  style="overflow:visible;"/>
		</clipPath>
		<path class="st9" d="M121.2,138.4c0-5,4.1-9.1,9.1-9.1c5,0,9.1,4.1,9.1,9.1c0,5-4.1,9.1-9.1,9.1
			C125.3,147.4,121.2,143.4,121.2,138.4L121.2,138.4z M134.7,153.6c0.1-2,0.8-3.8,1.9-5.3c-0.8-0.2-1.6-0.2-2.4-0.2h-7.7
			c-0.8,0-1.6,0.1-2.4,0.2c1.2,1.6,1.9,3.6,1.9,5.7c1.4-0.8,3-1.2,4.8-1.2C132.1,152.8,133.5,153.1,134.7,153.6L134.7,153.6z
			 M136.2,154.4c2.6,1.7,4.5,4.5,4.8,7.7c1.1,0.5,2.3,0.8,3.5,0.8c4.6,0,8.4-3.8,8.4-8.4s-3.7-8.4-8.4-8.4
			C140,146.2,136.3,149.9,136.2,154.4L136.2,154.4z M130.7,171.6c4.6,0,8.4-3.7,8.4-8.4c0-4.6-3.7-8.4-8.4-8.4
			c-4.6,0-8.4,3.7-8.4,8.4C122.4,167.8,126.1,171.6,130.7,171.6L130.7,171.6z M134.3,172.1h-7.1c-5.9,0-10.7,4.8-10.7,10.7v8.7
			l0,0.1l0.6,0.2c5.6,1.8,10.5,2.4,14.6,2.4c7.9,0,12.4-2.2,12.7-2.4l0.6-0.3h0.1v-8.7C145,177,140.2,172.1,134.3,172.1L134.3,172.1
			z M148.1,163.5h-7c-0.1,2.8-1.3,5.4-3.2,7.2c5.2,1.6,9.1,6.4,9.1,12.2v2.7c7-0.3,11-2.2,11.2-2.4l0.6-0.3h0.1v-8.7
			C158.8,168.3,154,163.5,148.1,163.5L148.1,163.5z M150,146c2.6,1.7,4.5,4.5,4.8,7.7c1.1,0.5,2.3,0.8,3.5,0.8
			c4.6,0,8.4-3.7,8.4-8.4c0-4.6-3.7-8.4-8.4-8.4C153.8,137.8,150.1,141.5,150,146L150,146z M161.9,155.1h-7
			c-0.1,2.8-1.3,5.4-3.2,7.2c5.3,1.6,9.1,6.4,9.1,12.2v2.7c7-0.3,11-2.2,11.2-2.4l0.6-0.3h0.1v-8.7
			C172.6,159.9,167.8,155.1,161.9,155.1L161.9,155.1z M116,162.9c1.6,0,3.2-0.5,4.5-1.3c0.4-2.7,1.8-5,3.9-6.6c0-0.2,0-0.3,0-0.5
			c0-4.6-3.7-8.4-8.4-8.4s-8.4,3.7-8.4,8.4C107.7,159.2,111.4,162.9,116,162.9L116,162.9z M123.6,170.7c-1.9-1.8-3.1-4.3-3.2-7.1
			c-0.3,0-0.5,0-0.8,0h-7.1c-5.9,0-10.7,4.8-10.7,10.7v8.7l0,0.1l0.6,0.2c4.5,1.4,8.6,2.1,12.1,2.3v-2.6
			C114.5,177.1,118.3,172.3,123.6,170.7L123.6,170.7z M123.6,170.7"/>
	</g>
</g>
<text transform="matrix(1.0059 0 0 1 202.1801 278.2222)"><tspan x="0" y="0" class="st10 st11 st12">Common</tspan><tspan x="3.3" y="19.5" class="st10 st11 st12">Purpose</tspan></text>
<line class="st13" x1="163" y1="193.2" x2="331.3" y2="241"/>
<line class="st13" x1="156.7" y1="204.3" x2="163" y2="352.1"/>
<line class="st13" x1="143.4" y1="199" x2="155.7" y2="364"/>
<line class="st13" x1="115.6" y1="195.2" x2="107.9" y2="204.3"/>
<line class="st13" x1="223.3" y1="178.8" x2="178.9" y2="175.1"/>
<line class="st14" x1="257" y1="224" x2="256" y2="224"/>
<line class="st13" x1="321.7" y1="204.3" x2="337.8" y2="224"/>
<line class="st15" x1="247.1" y1="176.9" x2="298.3" y2="195.2"/>
<line class="st15" x1="321.7" y1="204.3" x2="337.8" y2="224"/>
<line class="st15" x1="335.6" y1="267.8" x2="331.3" y2="298"/>
<line class="st15" x1="329.8" y1="254.9" x2="261.7" y2="382.8"/>
<line class="st15" x1="308.3" y1="349.8" x2="311.1" y2="214.2"/>
<line class="st15" x1="331.3" y1="241" x2="235" y2="182.1"/>
<line class="st13" x1="140.6" y1="201.8" x2="126.1" y2="224"/>
<line class="st15" x1="159.8" y1="193.2" x2="133.3" y2="307.1"/>
<line class="st15" x1="159.8" y1="189.3" x2="166.7" y2="362.8"/>
<line class="st15" x1="160.1" y1="195.2" x2="220" y2="382.8"/>
<line class="st15" x1="121.7" y1="217.1" x2="133.3" y2="199"/>
<line class="st15" x1="126.1" y1="230.4" x2="207.8" y2="182.1"/>
<line class="st15" x1="115.6" y1="252.7" x2="118.3" y2="288.3"/>
<line class="st15" x1="118.3" y1="254.9" x2="160.1" y2="354.3"/>
<line class="st15" x1="121.7" y1="238.8" x2="239.2" y2="377.7"/>
<line class="st15" x1="291.7" y1="368.8" x2="266.8" y2="381.7"/>
<line class="st15" x1="296" y1="363.5" x2="186" y2="363.5"/>
<line class="st15" x1="331.3" y1="311.2" x2="195.8" y2="359.9"/>
<line class="st15" x1="329.8" y1="328.2" x2="326.7" y2="344.2"/>
<line class="st15" x1="328.2" y1="323.8" x2="257" y2="375.2"/>
<line class="st15" x1="331.3" y1="241" x2="129.6" y2="238.8"/>
<line class="st15" x1="329.8" y1="254.9" x2="180.4" y2="357.7"/>
<line class="st15" x1="295.7" y1="208.1" x2="137.3" y2="304.6"/>
<line class="st15" x1="226.1" y1="186.1" x2="315.6" y2="344.2"/>
<line class="st15" x1="329.8" y1="294.9" x2="170.6" y2="189.3"/>
<line class="st15" x1="175.6" y1="357.7" x2="210.6" y2="186.1"/>
<line class="st15" x1="244.4" y1="375.2" x2="305.6" y2="208.1"/>
<g>
	<g>
		<defs>
			<rect id="SVGID_21_" x="701.6" y="107" width="26.4" height="59.9"/>
		</defs>
		<clipPath id="SVGID_22_">
			<use xlink:href="#SVGID_21_"  style="overflow:visible;"/>
		</clipPath>
		<path class="st16" d="M719.1,112c0,2.8-2.2,5-5,5c-2.8,0-5-2.2-5-5c0-2.8,2.3-5,5-5C716.8,107,719.1,109.3,719.1,112L719.1,112z
			 M719.1,112"/>
		<path class="st16" d="M715.8,119.4c-1.3-0.3-2.6-0.2-3.8,0c-8.4,1-11.1,10.6-10.3,18c0.3,3.2,5.4,3.2,5,0
			c-0.3-2.7-0.2-6.7,1.3-9.6v10.5c0,0.1,0,0.2,0,0.4c0,0.1,0,0.1,0,0.2c0,8.3,0,16.7-0.4,25c-0.2,3.7,5.6,3.7,5.7,0
			c0.3-6.5,0.3-13.1,0.4-19.6c0.3,0,0.5,0,0.8,0c0,6.5,0.1,13.1,0.3,19.6c0.2,3.7,5.9,3.7,5.7,0c-0.3-8.3-0.4-16.7-0.4-25
			c0-0.3,0-0.5-0.1-0.7c0-3.6-0.1-7.2-0.1-10.9c1.7,2.9,1.9,7.3,1.6,10.2c-0.3,3.2,4.7,3.2,5,0C727.4,130,724.6,120.1,715.8,119.4
			L715.8,119.4z M715.8,119.4"/>
	</g>
</g>
<g>
	<g>
		<defs>
			<rect id="SVGID_23_" x="776" y="175.6" width="26.4" height="59.9"/>
		</defs>
		<clipPath id="SVGID_24_">
			<use xlink:href="#SVGID_23_"  style="overflow:visible;"/>
		</clipPath>
		<path class="st17" d="M793.5,180.6c0,2.8-2.2,5-5,5c-2.8,0-5-2.2-5-5c0-2.8,2.3-5,5-5C791.3,175.6,793.5,177.8,793.5,180.6
			L793.5,180.6z M793.5,180.6"/>
		<path class="st17" d="M790.3,188c-1.3-0.3-2.6-0.2-3.8,0c-8.4,1-11.1,10.6-10.3,18c0.3,3.2,5.4,3.2,5,0c-0.3-2.7-0.2-6.7,1.3-9.6
			V207c0,0.1,0,0.2,0,0.4c0,0.1,0,0.1,0,0.2c0,8.3,0,16.7-0.4,25c-0.2,3.7,5.6,3.7,5.7,0c0.3-6.5,0.3-13.1,0.4-19.6
			c0.3,0,0.5,0,0.8,0c0,6.5,0.1,13.1,0.3,19.6c0.2,3.7,5.9,3.7,5.7,0c-0.3-8.3-0.4-16.7-0.4-25c0-0.3,0-0.5-0.1-0.7
			c0-3.6-0.1-7.2-0.1-10.9c1.7,2.9,1.9,7.3,1.6,10.2c-0.3,3.2,4.7,3.2,5,0C801.9,198.6,799,188.6,790.3,188L790.3,188z M790.3,188"
			/>
	</g>
</g>
<g>
	<g>
		<defs>
			<rect id="SVGID_25_" x="739.9" y="240.6" width="26.4" height="59.9"/>
		</defs>
		<clipPath id="SVGID_26_">
			<use xlink:href="#SVGID_25_"  style="overflow:visible;"/>
		</clipPath>
		<path class="st18" d="M757.4,245.6c0,2.8-2.2,5-5,5c-2.8,0-5-2.2-5-5c0-2.8,2.3-5,5-5C755.2,240.6,757.4,242.8,757.4,245.6
			L757.4,245.6z M757.4,245.6"/>
		<path class="st18" d="M754.2,253c-1.3-0.3-2.6-0.2-3.8,0c-8.4,1-11.1,10.6-10.3,18c0.3,3.2,5.4,3.2,5,0c-0.3-2.7-0.2-6.7,1.3-9.6
			V272c0,0.1,0,0.2,0,0.4c0,0.1,0,0.1,0,0.2c0,8.3,0,16.7-0.4,25c-0.2,3.7,5.6,3.7,5.7,0c0.3-6.5,0.3-13.1,0.4-19.6
			c0.3,0,0.5,0,0.8,0c0,6.5,0.1,13.1,0.3,19.6c0.2,3.7,5.9,3.7,5.7,0c-0.3-8.3-0.4-16.7-0.4-25c0-0.3,0-0.5-0.1-0.7
			c0-3.6-0.1-7.2-0.1-10.9c1.7,2.9,1.9,7.3,1.6,10.2c-0.3,3.2,4.7,3.2,5,0C765.8,263.6,762.9,253.6,754.2,253L754.2,253z M754.2,253
			"/>
	</g>
</g>
<g>
	<g>
		<defs>
			<rect id="SVGID_27_" x="710.5" y="315.1" width="26.4" height="59.9"/>
		</defs>
		<clipPath id="SVGID_28_">
			<use xlink:href="#SVGID_27_"  style="overflow:visible;"/>
		</clipPath>
		<path class="st19" d="M728.1,320.1c0,2.8-2.2,5-5,5c-2.8,0-5-2.2-5-5s2.3-5,5-5C725.8,315.1,728.1,317.3,728.1,320.1L728.1,320.1z
			 M728.1,320.1"/>
		<path class="st19" d="M724.8,327.5c-1.3-0.3-2.6-0.2-3.8,0c-8.4,1-11.1,10.6-10.3,18c0.3,3.2,5.4,3.2,5,0
			c-0.3-2.7-0.2-6.7,1.3-9.6v10.5c0,0.1,0,0.2,0,0.4c0,0.1,0,0.1,0,0.2c0,8.3,0,16.7-0.4,25c-0.2,3.7,5.6,3.7,5.7,0
			c0.3-6.5,0.3-13.1,0.4-19.6c0.3,0,0.5,0,0.8,0c0,6.5,0.1,13.1,0.3,19.6c0.2,3.7,5.9,3.7,5.7,0c-0.3-8.3-0.4-16.7-0.4-25
			c0-0.3,0-0.5-0.1-0.7c0-3.6-0.1-7.2-0.1-10.9c1.7,2.9,1.9,7.3,1.6,10.2c-0.3,3.2,4.7,3.2,5,0C736.4,338.1,733.6,328.1,724.8,327.5
			L724.8,327.5z M724.8,327.5"/>
	</g>
</g>
<g>
	<g>
		<defs>
			<rect id="SVGID_29_" x="753.1" y="394.4" width="26.4" height="59.9"/>
		</defs>
		<clipPath id="SVGID_30_">
			<use xlink:href="#SVGID_29_"  style="overflow:visible;"/>
		</clipPath>
		<path class="st20" d="M770.7,399.4c0,2.8-2.2,5-5,5c-2.8,0-5-2.2-5-5s2.3-5,5-5C768.4,394.4,770.7,396.6,770.7,399.4L770.7,399.4z
			 M770.7,399.4"/>
		<path class="st20" d="M767.4,406.8c-1.3-0.3-2.6-0.2-3.8,0c-8.4,1-11.1,10.6-10.3,18c0.3,3.2,5.4,3.2,5,0
			c-0.3-2.7-0.2-6.7,1.3-9.6v10.5c0,0.1,0,0.2,0,0.4c0,0.1,0,0.1,0,0.2c0,8.3,0,16.7-0.4,25c-0.2,3.7,5.6,3.7,5.7,0
			c0.3-6.5,0.3-13.1,0.4-19.6c0.3,0,0.5,0,0.8,0c0,6.5,0.1,13.1,0.3,19.6c0.2,3.7,5.9,3.7,5.7,0c-0.3-8.3-0.4-16.7-0.4-25
			c0-0.3,0-0.5-0.1-0.7c0-3.6-0.1-7.2-0.1-10.9c1.7,2.9,1.9,7.3,1.6,10.2c-0.3,3.2,4.7,3.2,5,0C779,417.3,776.2,407.4,767.4,406.8
			L767.4,406.8z M767.4,406.8"/>
	</g>
</g>
<g>
	<g>
		<defs>
			<rect id="SVGID_31_" x="691" y="389.8" width="26.4" height="59.9"/>
		</defs>
		<clipPath id="SVGID_32_">
			<use xlink:href="#SVGID_31_"  style="overflow:visible;"/>
		</clipPath>
		<path class="st21" d="M708.5,394.8c0,2.8-2.2,5-5,5c-2.8,0-5-2.2-5-5c0-2.8,2.3-5,5-5C706.3,389.8,708.5,392,708.5,394.8
			L708.5,394.8z M708.5,394.8"/>
		<path class="st21" d="M705.2,402.2c-1.3-0.3-2.6-0.2-3.8,0c-8.4,1-11.1,10.6-10.3,18c0.3,3.2,5.4,3.2,5,0
			c-0.3-2.7-0.2-6.7,1.3-9.6v10.5c0,0.1,0,0.2,0,0.4c0,0.1,0,0.1,0,0.2c0,8.3,0,16.7-0.4,25c-0.2,3.7,5.6,3.7,5.7,0
			c0.3-6.5,0.3-13.1,0.4-19.6c0.3,0,0.5,0,0.8,0c0,6.5,0.1,13.1,0.3,19.6c0.2,3.7,5.9,3.7,5.7,0c-0.3-8.3-0.4-16.7-0.4-25
			c0-0.3,0-0.5-0.1-0.7c0-3.6-0.1-7.2-0.1-10.9c1.7,2.9,1.9,7.3,1.6,10.2c-0.3,3.2,4.7,3.2,5,0C716.9,412.8,714,402.9,705.2,402.2
			L705.2,402.2z M705.2,402.2"/>
	</g>
</g>
<g>
	<g>
		<defs>
			<rect id="SVGID_33_" x="766.4" y="311.5" width="26.4" height="59.9"/>
		</defs>
		<clipPath id="SVGID_34_">
			<use xlink:href="#SVGID_33_"  style="overflow:visible;"/>
		</clipPath>
		<path class="st22" d="M783.9,316.5c0,2.8-2.2,5-5,5c-2.8,0-5-2.2-5-5s2.3-5,5-5C781.7,311.5,783.9,313.7,783.9,316.5L783.9,316.5z
			 M783.9,316.5"/>
		<path class="st22" d="M780.6,323.9c-1.3-0.3-2.6-0.2-3.8,0c-8.4,1-11.1,10.6-10.3,18c0.3,3.2,5.4,3.2,5,0
			c-0.3-2.7-0.2-6.7,1.3-9.6v10.5c0,0.1,0,0.2,0,0.4c0,0.1,0,0.1,0,0.2c0,8.3,0,16.7-0.4,25c-0.2,3.7,5.6,3.7,5.7,0
			c0.3-6.5,0.3-13.1,0.4-19.6c0.3,0,0.5,0,0.8,0c0,6.5,0.1,13.1,0.3,19.6c0.2,3.7,5.9,3.7,5.7,0c-0.3-8.3-0.4-16.7-0.4-25
			c0-0.3,0-0.5-0.1-0.7c0-3.6-0.1-7.2-0.1-10.9c1.7,2.9,1.9,7.3,1.6,10.2c-0.3,3.2,4.7,3.2,5,0C792.2,334.4,789.4,324.5,780.6,323.9
			L780.6,323.9z M780.6,323.9"/>
	</g>
</g>
<g>
	<g>
		<defs>
			<rect id="SVGID_35_" x="795.8" y="394.4" width="26.4" height="59.9"/>
		</defs>
		<clipPath id="SVGID_36_">
			<use xlink:href="#SVGID_35_"  style="overflow:visible;"/>
		</clipPath>
		<path class="st23" d="M813.3,399.4c0,2.8-2.2,5-5,5c-2.8,0-5-2.2-5-5s2.3-5,5-5C811.1,394.4,813.3,396.6,813.3,399.4L813.3,399.4z
			 M813.3,399.4"/>
		<path class="st23" d="M810,406.8c-1.3-0.3-2.6-0.2-3.8,0c-8.4,1-11.1,10.6-10.3,18c0.3,3.2,5.4,3.2,5,0c-0.3-2.7-0.2-6.7,1.3-9.6
			v10.5c0,0.1,0,0.2,0,0.4c0,0.1,0,0.1,0,0.2c0,8.3,0,16.7-0.4,25c-0.2,3.7,5.6,3.7,5.7,0c0.3-6.5,0.3-13.1,0.4-19.6
			c0.3,0,0.5,0,0.8,0c0,6.5,0.1,13.1,0.3,19.6c0.2,3.7,5.9,3.7,5.7,0c-0.3-8.3-0.4-16.7-0.4-25c0-0.3,0-0.5-0.1-0.7
			c0-3.6-0.1-7.2-0.1-10.9c1.7,2.9,1.9,7.3,1.6,10.2c-0.3,3.2,4.7,3.2,5,0C821.6,417.3,818.8,407.4,810,406.8L810,406.8z M810,406.8
			"/>
	</g>
</g>
<g>
	<g>
		<defs>
			<rect id="SVGID_37_" x="806.6" y="229.8" width="26.4" height="59.9"/>
		</defs>
		<clipPath id="SVGID_38_">
			<use xlink:href="#SVGID_37_"  style="overflow:visible;"/>
		</clipPath>
		<path class="st24" d="M824.1,234.8c0,2.8-2.2,5-5,5c-2.8,0-5-2.2-5-5c0-2.8,2.3-5,5-5C821.8,229.8,824.1,232,824.1,234.8
			L824.1,234.8z M824.1,234.8"/>
		<path class="st24" d="M820.8,242.2c-1.3-0.3-2.6-0.2-3.8,0c-8.4,1-11.1,10.6-10.3,18c0.3,3.2,5.4,3.2,5,0
			c-0.3-2.7-0.2-6.7,1.3-9.6v10.5c0,0.1,0,0.2,0,0.4c0,0.1,0,0.1,0,0.2c0,8.3,0,16.7-0.4,25c-0.2,3.7,5.6,3.7,5.7,0
			c0.3-6.5,0.3-13.1,0.4-19.6c0.3,0,0.5,0,0.8,0c0,6.5,0.1,13.1,0.3,19.6c0.2,3.7,5.9,3.7,5.7,0c-0.3-8.3-0.4-16.7-0.4-25
			c0-0.3,0-0.5-0.1-0.7c0-3.6-0.1-7.2-0.1-10.9c1.7,2.9,1.9,7.3,1.6,10.2c-0.3,3.2,4.7,3.2,5,0C832.4,252.8,829.6,242.9,820.8,242.2
			L820.8,242.2z M820.8,242.2"/>
	</g>
</g>
<g>
	<g>
		<defs>
			<rect id="SVGID_39_" x="842.7" y="311.5" width="26.4" height="59.9"/>
		</defs>
		<clipPath id="SVGID_40_">
			<use xlink:href="#SVGID_39_"  style="overflow:visible;"/>
		</clipPath>
		<path class="st25" d="M860.2,316.5c0,2.8-2.2,5-5,5c-2.8,0-5-2.2-5-5s2.3-5,5-5C858,311.5,860.2,313.7,860.2,316.5L860.2,316.5z
			 M860.2,316.5"/>
		<path class="st25" d="M856.9,323.9c-1.3-0.3-2.6-0.2-3.8,0c-8.4,1-11.1,10.6-10.3,18c0.3,3.2,5.4,3.2,5,0
			c-0.3-2.7-0.2-6.7,1.3-9.6v10.5c0,0.1,0,0.2,0,0.4c0,0.1,0,0.1,0,0.2c0,8.3,0,16.7-0.4,25c-0.2,3.7,5.6,3.7,5.7,0
			c0.3-6.5,0.3-13.1,0.4-19.6c0.3,0,0.5,0,0.8,0c0,6.5,0.1,13.1,0.3,19.6c0.2,3.7,5.9,3.7,5.7,0c-0.3-8.3-0.4-16.7-0.4-25
			c0-0.3,0-0.5-0.1-0.7c0-3.6-0.1-7.2-0.1-10.9c1.7,2.9,1.9,7.3,1.6,10.2c-0.3,3.2,4.7,3.2,5,0C868.5,334.4,865.7,324.5,856.9,323.9
			L856.9,323.9z M856.9,323.9"/>
	</g>
</g>
<g>
	<g>
		<defs>
			<rect id="SVGID_41_" x="876" y="394.4" width="26.4" height="59.9"/>
		</defs>
		<clipPath id="SVGID_42_">
			<use xlink:href="#SVGID_41_"  style="overflow:visible;"/>
		</clipPath>
		<path class="st26" d="M893.5,399.4c0,2.8-2.2,5-5,5c-2.8,0-5-2.2-5-5s2.3-5,5-5C891.3,394.4,893.5,396.6,893.5,399.4L893.5,399.4z
			 M893.5,399.4"/>
		<path class="st26" d="M890.3,406.8c-1.3-0.3-2.6-0.2-3.8,0c-8.4,1-11.1,10.6-10.3,18c0.3,3.2,5.4,3.2,5,0
			c-0.3-2.7-0.2-6.7,1.3-9.6v10.5c0,0.1,0,0.2,0,0.4c0,0.1,0,0.1,0,0.2c0,8.3,0,16.7-0.4,25c-0.2,3.7,5.6,3.7,5.7,0
			c0.3-6.5,0.3-13.1,0.4-19.6c0.3,0,0.5,0,0.8,0c0,6.5,0.1,13.1,0.3,19.6c0.2,3.7,5.9,3.7,5.7,0c-0.3-8.3-0.4-16.7-0.4-25
			c0-0.3,0-0.5-0.1-0.7c0-3.6-0.1-7.2-0.1-10.9c1.7,2.9,1.9,7.3,1.6,10.2c-0.3,3.2,4.7,3.2,5,0C901.9,417.3,899,407.4,890.3,406.8
			L890.3,406.8z M890.3,406.8"/>
	</g>
</g>
<g>
	<g>
		<defs>
			<rect id="SVGID_43_" x="838.4" y="394.4" width="26.4" height="59.9"/>
		</defs>
		<clipPath id="SVGID_44_">
			<use xlink:href="#SVGID_43_"  style="overflow:visible;"/>
		</clipPath>
		<path class="st27" d="M855.9,399.4c0,2.8-2.2,5-5,5c-2.8,0-5-2.2-5-5s2.3-5,5-5C853.7,394.4,855.9,396.6,855.9,399.4L855.9,399.4z
			 M855.9,399.4"/>
		<path class="st27" d="M852.7,406.8c-1.3-0.3-2.6-0.2-3.8,0c-8.4,1-11.1,10.6-10.3,18c0.3,3.2,5.4,3.2,5,0
			c-0.3-2.7-0.2-6.7,1.3-9.6v10.5c0,0.1,0,0.2,0,0.4c0,0.1,0,0.1,0,0.2c0,8.3,0,16.7-0.4,25c-0.2,3.7,5.6,3.7,5.7,0
			c0.3-6.5,0.3-13.1,0.4-19.6c0.3,0,0.5,0,0.8,0c0,6.5,0.1,13.1,0.3,19.6c0.2,3.7,5.9,3.7,5.7,0c-0.3-8.3-0.4-16.7-0.4-25
			c0-0.3,0-0.5-0.1-0.7c0-3.6-0.1-7.2-0.1-10.9c1.7,2.9,1.9,7.3,1.6,10.2c-0.3,3.2,4.7,3.2,5,0C864.3,417.3,861.4,407.4,852.7,406.8
			L852.7,406.8z M852.7,406.8"/>
	</g>
</g>
<g>
	<g>
		<defs>
			<rect id="SVGID_45_" x="647.7" y="163.1" width="26.4" height="59.9"/>
		</defs>
		<clipPath id="SVGID_46_">
			<use xlink:href="#SVGID_45_"  style="overflow:visible;"/>
		</clipPath>
		<path class="st28" d="M665.2,168.2c0,2.8-2.2,5-5,5c-2.8,0-5-2.2-5-5c0-2.8,2.3-5,5-5C663,163.1,665.2,165.4,665.2,168.2
			L665.2,168.2z M665.2,168.2"/>
		<path class="st28" d="M661.9,175.6c-1.3-0.3-2.6-0.2-3.8,0c-8.4,1-11.1,10.6-10.3,18c0.3,3.2,5.4,3.2,5,0
			c-0.3-2.7-0.2-6.7,1.3-9.6v10.5c0,0.1,0,0.2,0,0.4c0,0.1,0,0.1,0,0.2c0,8.3,0,16.7-0.4,25c-0.2,3.7,5.6,3.7,5.7,0
			c0.3-6.5,0.3-13.1,0.4-19.6c0.3,0,0.5,0,0.8,0c0,6.5,0.1,13.1,0.3,19.6c0.2,3.7,5.9,3.7,5.7,0c-0.3-8.3-0.4-16.7-0.4-25
			c0-0.3,0-0.5-0.1-0.7c0-3.6-0.1-7.2-0.1-10.9c1.7,2.9,1.9,7.3,1.6,10.2c-0.3,3.2,4.7,3.2,5,0C673.5,186.1,670.7,176.2,661.9,175.6
			L661.9,175.6z M661.9,175.6"/>
	</g>
</g>
<g>
	<g>
		<defs>
			<rect id="SVGID_47_" x="714.8" y="184.4" width="26.4" height="59.9"/>
		</defs>
		<clipPath id="SVGID_48_">
			<use xlink:href="#SVGID_47_"  style="overflow:visible;"/>
		</clipPath>
		<path class="st29" d="M732.3,189.4c0,2.8-2.2,5-5,5c-2.8,0-5-2.2-5-5c0-2.8,2.3-5,5-5C730.1,184.4,732.3,186.6,732.3,189.4
			L732.3,189.4z M732.3,189.4"/>
		<path class="st29" d="M729.1,196.8c-1.3-0.3-2.6-0.2-3.8,0c-8.4,1-11.1,10.6-10.3,18c0.3,3.2,5.4,3.2,5,0
			c-0.3-2.7-0.2-6.7,1.3-9.6v10.5c0,0.1,0,0.2,0,0.4c0,0.1,0,0.1,0,0.2c0,8.3,0,16.7-0.4,25c-0.2,3.7,5.6,3.7,5.7,0
			c0.3-6.5,0.3-13.1,0.4-19.6c0.3,0,0.5,0,0.8,0c0,6.5,0.1,13.1,0.3,19.6c0.2,3.7,5.9,3.7,5.7,0c-0.3-8.3-0.4-16.7-0.4-25
			c0-0.3,0-0.5-0.1-0.7c0-3.6-0.1-7.2-0.1-10.9c1.7,2.9,1.9,7.3,1.6,10.2c-0.3,3.2,4.7,3.2,5,0C740.7,207.3,737.8,197.4,729.1,196.8
			L729.1,196.8z M729.1,196.8"/>
	</g>
</g>
<g>
	<g>
		<defs>
			<rect id="SVGID_49_" x="667.5" y="240.6" width="26.4" height="59.9"/>
		</defs>
		<clipPath id="SVGID_50_">
			<use xlink:href="#SVGID_49_"  style="overflow:visible;"/>
		</clipPath>
		<path class="st30" d="M685,245.6c0,2.8-2.2,5-5,5c-2.8,0-5-2.2-5-5c0-2.8,2.3-5,5-5C682.8,240.6,685,242.8,685,245.6L685,245.6z
			 M685,245.6"/>
		<path class="st30" d="M681.7,253c-1.3-0.3-2.6-0.2-3.8,0c-8.4,1-11.1,10.6-10.3,18c0.3,3.2,5.4,3.2,5,0c-0.3-2.7-0.2-6.7,1.3-9.6
			V272c0,0.1,0,0.2,0,0.4c0,0.1,0,0.1,0,0.2c0,8.3,0,16.7-0.4,25c-0.2,3.7,5.6,3.7,5.7,0c0.3-6.5,0.3-13.1,0.4-19.6
			c0.3,0,0.5,0,0.8,0c0,6.5,0.1,13.1,0.3,19.6c0.2,3.7,5.9,3.7,5.7,0c-0.3-8.3-0.4-16.7-0.4-25c0-0.3,0-0.5-0.1-0.7
			c0-3.6-0.1-7.2-0.1-10.9c1.7,2.9,1.9,7.3,1.6,10.2c-0.3,3.2,4.7,3.2,5,0C693.4,263.6,690.5,253.6,681.7,253L681.7,253z M681.7,253
			"/>
	</g>
</g>
<g>
	<g>
		<defs>
			<rect id="SVGID_51_" x="647.7" y="311.5" width="26.4" height="59.9"/>
		</defs>
		<clipPath id="SVGID_52_">
			<use xlink:href="#SVGID_51_"  style="overflow:visible;"/>
		</clipPath>
		<path class="st31" d="M665.2,316.5c0,2.8-2.2,5-5,5c-2.8,0-5-2.2-5-5s2.3-5,5-5C663,311.5,665.2,313.7,665.2,316.5L665.2,316.5z
			 M665.2,316.5"/>
		<path class="st31" d="M661.9,323.9c-1.3-0.3-2.6-0.2-3.8,0c-8.4,1-11.1,10.6-10.3,18c0.3,3.2,5.4,3.2,5,0
			c-0.3-2.7-0.2-6.7,1.3-9.6v10.5c0,0.1,0,0.2,0,0.4c0,0.1,0,0.1,0,0.2c0,8.3,0,16.7-0.4,25c-0.2,3.7,5.6,3.7,5.7,0
			c0.3-6.5,0.3-13.1,0.4-19.6c0.3,0,0.5,0,0.8,0c0,6.5,0.1,13.1,0.3,19.6c0.2,3.7,5.9,3.7,5.7,0c-0.3-8.3-0.4-16.7-0.4-25
			c0-0.3,0-0.5-0.1-0.7c0-3.6-0.1-7.2-0.1-10.9c1.7,2.9,1.9,7.3,1.6,10.2c-0.3,3.2,4.7,3.2,5,0C673.5,334.4,670.7,324.5,661.9,323.9
			L661.9,323.9z M661.9,323.9"/>
	</g>
</g>
<g>
	<g>
		<defs>
			<rect id="SVGID_53_" x="647.7" y="389.8" width="26.4" height="59.9"/>
		</defs>
		<clipPath id="SVGID_54_">
			<use xlink:href="#SVGID_53_"  style="overflow:visible;"/>
		</clipPath>
		<path class="st32" d="M665.2,394.8c0,2.8-2.2,5-5,5c-2.8,0-5-2.2-5-5c0-2.8,2.3-5,5-5C663,389.8,665.2,392,665.2,394.8
			L665.2,394.8z M665.2,394.8"/>
		<path class="st32" d="M661.9,402.2c-1.3-0.3-2.6-0.2-3.8,0c-8.4,1-11.1,10.6-10.3,18c0.3,3.2,5.4,3.2,5,0
			c-0.3-2.7-0.2-6.7,1.3-9.6v10.5c0,0.1,0,0.2,0,0.4c0,0.1,0,0.1,0,0.2c0,8.3,0,16.7-0.4,25c-0.2,3.7,5.6,3.7,5.7,0
			c0.3-6.5,0.3-13.1,0.4-19.6c0.3,0,0.5,0,0.8,0c0,6.5,0.1,13.1,0.3,19.6c0.2,3.7,5.9,3.7,5.7,0c-0.3-8.3-0.4-16.7-0.4-25
			c0-0.3,0-0.5-0.1-0.7c0-3.6-0.1-7.2-0.1-10.9c1.7,2.9,1.9,7.3,1.6,10.2c-0.3,3.2,4.7,3.2,5,0C673.5,412.8,670.7,402.9,661.9,402.2
			L661.9,402.2z M661.9,402.2"/>
	</g>
</g>
<g>
	<g>
		<defs>
			<rect id="SVGID_55_" x="612.2" y="227.6" width="26.4" height="59.9"/>
		</defs>
		<clipPath id="SVGID_56_">
			<use xlink:href="#SVGID_55_"  style="overflow:visible;"/>
		</clipPath>
		<path class="st33" d="M629.7,232.7c0,2.8-2.2,5-5,5c-2.8,0-5-2.2-5-5c0-2.8,2.3-5,5-5C627.5,227.6,629.7,229.9,629.7,232.7
			L629.7,232.7z M629.7,232.7"/>
		<path class="st33" d="M626.5,240.1c-1.3-0.3-2.6-0.2-3.8,0c-8.4,1-11.1,10.6-10.3,18c0.3,3.2,5.4,3.2,5,0
			c-0.3-2.7-0.2-6.7,1.3-9.6V259c0,0.1,0,0.2,0,0.4c0,0.1,0,0.1,0,0.2c0,8.3,0,16.7-0.4,25c-0.2,3.7,5.6,3.7,5.7,0
			c0.3-6.5,0.3-13.1,0.4-19.6c0.3,0,0.5,0,0.8,0c0,6.5,0.1,13.1,0.3,19.6c0.2,3.7,5.9,3.7,5.7,0c-0.3-8.3-0.4-16.7-0.4-25
			c0-0.3,0-0.5-0.1-0.7c0-3.6-0.1-7.2-0.1-10.9c1.7,2.9,1.9,7.3,1.6,10.2c-0.3,3.2,4.7,3.2,5,0C638.1,250.6,635.2,240.7,626.5,240.1
			L626.5,240.1z M626.5,240.1"/>
	</g>
</g>
<g>
	<g>
		<defs>
			<rect id="SVGID_57_" x="588" y="305.9" width="26.4" height="59.9"/>
		</defs>
		<clipPath id="SVGID_58_">
			<use xlink:href="#SVGID_57_"  style="overflow:visible;"/>
		</clipPath>
		<path class="st34" d="M605.5,310.9c0,2.8-2.2,5-5,5c-2.8,0-5-2.2-5-5c0-2.8,2.3-5,5-5C603.2,305.9,605.5,308.2,605.5,310.9
			L605.5,310.9z M605.5,310.9"/>
		<path class="st34" d="M602.2,318.4c-1.3-0.3-2.6-0.2-3.8,0c-8.4,1-11.1,10.6-10.3,18c0.3,3.2,5.4,3.2,5,0
			c-0.3-2.7-0.2-6.7,1.3-9.6v10.5c0,0.1,0,0.2,0,0.4c0,0.1,0,0.1,0,0.2c0,8.3,0,16.7-0.4,25c-0.2,3.7,5.6,3.7,5.7,0
			c0.3-6.5,0.3-13.1,0.4-19.6c0.3,0,0.5,0,0.8,0c0,6.5,0.1,13.1,0.3,19.6c0.2,3.7,5.9,3.7,5.7,0c-0.3-8.3-0.4-16.7-0.4-25
			c0-0.3,0-0.5-0.1-0.7c0-3.6-0.1-7.2-0.1-10.9c1.7,2.9,1.9,7.3,1.6,10.2c-0.3,3.2,4.7,3.2,5,0C613.8,328.9,611,319,602.2,318.4
			L602.2,318.4z M602.2,318.4"/>
	</g>
</g>
<g>
	<g>
		<defs>
			<rect id="SVGID_59_" x="601.2" y="387" width="26.4" height="59.9"/>
		</defs>
		<clipPath id="SVGID_60_">
			<use xlink:href="#SVGID_59_"  style="overflow:visible;"/>
		</clipPath>
		<path class="st35" d="M618.7,392c0,2.8-2.2,5-5,5c-2.8,0-5-2.2-5-5c0-2.8,2.3-5,5-5C616.5,387,618.7,389.3,618.7,392L618.7,392z
			 M618.7,392"/>
		<path class="st35" d="M615.5,399.5c-1.3-0.3-2.6-0.2-3.8,0c-8.4,1-11.1,10.6-10.3,18c0.3,3.2,5.4,3.2,5,0
			c-0.3-2.7-0.2-6.7,1.3-9.6v10.5c0,0.1,0,0.2,0,0.4c0,0.1,0,0.1,0,0.2c0,8.3,0,16.7-0.4,25c-0.2,3.7,5.6,3.7,5.7,0
			c0.3-6.5,0.3-13.1,0.4-19.6c0.3,0,0.5,0,0.8,0c0,6.5,0.1,13.1,0.3,19.6c0.2,3.7,5.9,3.7,5.7,0c-0.3-8.3-0.4-16.7-0.4-25
			c0-0.3,0-0.5-0.1-0.7c0-3.6-0.1-7.2-0.1-10.9c1.7,2.9,1.9,7.3,1.6,10.2c-0.3,3.2,4.7,3.2,5,0C627.1,410,624.2,400.1,615.5,399.5
			L615.5,399.5z M615.5,399.5"/>
	</g>
</g>
<g>
	<g>
		<defs>
			<rect id="SVGID_61_" x="556.3" y="389.8" width="26.4" height="59.9"/>
		</defs>
		<clipPath id="SVGID_62_">
			<use xlink:href="#SVGID_61_"  style="overflow:visible;"/>
		</clipPath>
		<path class="st36" d="M573.8,394.8c0,2.8-2.2,5-5,5c-2.8,0-5-2.2-5-5c0-2.8,2.3-5,5-5C571.6,389.8,573.8,392,573.8,394.8
			L573.8,394.8z M573.8,394.8"/>
		<path class="st36" d="M570.6,402.2c-1.3-0.3-2.6-0.2-3.8,0c-8.4,1-11.1,10.6-10.3,18c0.3,3.2,5.4,3.2,5,0
			c-0.3-2.7-0.2-6.7,1.3-9.6v10.5c0,0.1,0,0.2,0,0.4c0,0.1,0,0.1,0,0.2c0,8.3,0,16.7-0.4,25c-0.2,3.7,5.6,3.7,5.7,0
			c0.3-6.5,0.3-13.1,0.4-19.6c0.3,0,0.5,0,0.8,0c0,6.5,0.1,13.1,0.3,19.6c0.2,3.7,5.9,3.7,5.7,0c-0.3-8.3-0.4-16.7-0.4-25
			c0-0.3,0-0.5-0.1-0.7c0-3.6-0.1-7.2-0.1-10.9c1.7,2.9,1.9,7.3,1.6,10.2c-0.3,3.2,4.7,3.2,5,0C582.2,412.8,579.3,402.9,570.6,402.2
			L570.6,402.2z M570.6,402.2"/>
	</g>
</g>
<g>
	<g>
		<defs>
			<rect id="SVGID_63_" x="514.6" y="389.8" width="26.4" height="59.9"/>
		</defs>
		<clipPath id="SVGID_64_">
			<use xlink:href="#SVGID_63_"  style="overflow:visible;"/>
		</clipPath>
		<path class="st37" d="M532.2,394.8c0,2.8-2.2,5-5,5c-2.8,0-5-2.2-5-5c0-2.8,2.3-5,5-5C529.9,389.8,532.2,392,532.2,394.8
			L532.2,394.8z M532.2,394.8"/>
		<path class="st37" d="M528.9,402.2c-1.3-0.3-2.6-0.2-3.8,0c-8.4,1-11.1,10.6-10.3,18c0.3,3.2,5.4,3.2,5,0
			c-0.3-2.7-0.2-6.7,1.3-9.6v10.5c0,0.1,0,0.2,0,0.4c0,0.1,0,0.1,0,0.2c0,8.3,0,16.7-0.4,25c-0.2,3.7,5.6,3.7,5.7,0
			c0.3-6.5,0.3-13.1,0.4-19.6c0.3,0,0.5,0,0.8,0c0,6.5,0.1,13.1,0.3,19.6c0.2,3.7,5.9,3.7,5.7,0c-0.3-8.3-0.4-16.7-0.4-25
			c0-0.3,0-0.5-0.1-0.7c0-3.6-0.1-7.2-0.1-10.9c1.7,2.9,1.9,7.3,1.6,10.2c-0.3,3.2,4.7,3.2,5,0C540.5,412.8,537.7,402.9,528.9,402.2
			L528.9,402.2z M528.9,402.2"/>
	</g>
</g>
<line class="st15" x1="697.9" y1="148" x2="680.7" y2="171.3"/>
<line class="st15" x1="723.8" y1="151.3" x2="728" y2="179.4"/>
<line class="st15" x1="728" y1="148" x2="773.4" y2="179.4"/>
<line class="st15" x1="802.5" y1="224.1" x2="806.6" y2="240.3"/>
<line class="st15" x1="783.4" y1="240.3" x2="769.6" y2="258.1"/>
<line class="st15" x1="710.5" y1="232.2" x2="697.9" y2="249.8"/>
<line class="st15" x1="643.4" y1="209.1" x2="636.2" y2="224.2"/>
<line class="st15" x1="647.7" y1="260.2" x2="660.9" y2="273.6"/>
<line class="st15" x1="612.2" y1="276.9" x2="604" y2="300.8"/>
<line class="st15" x1="667.5" y1="293.2" x2="663.4" y2="305.8"/>
<line class="st15" x1="697.9" y1="286.6" x2="710.5" y2="318.2"/>
<line class="st15" x1="741.3" y1="286.6" x2="731.2" y2="310.2"/>
<line class="st15" x1="762.3" y1="293.2" x2="769.6" y2="314.8"/>
<line class="st15" x1="825.2" y1="298.4" x2="838.4" y2="317.6"/>
<line class="st15" x1="869.1" y1="363.7" x2="879" y2="389.6"/>
<line class="st15" x1="792.8" y1="359.7" x2="809" y2="389.6"/>
<line class="st15" x1="769.6" y1="359.7" x2="765.9" y2="386.8"/>
<line class="st15" x1="715.6" y1="370.5" x2="701.4" y2="385.8"/>
<line class="st15" x1="660.5" y1="378" x2="660.5" y2="387"/>
<line class="st15" x1="604" y1="369.8" x2="612.2" y2="382.3"/>
<line class="st15" x1="597.9" y1="367" x2="582.8" y2="389.6"/>
<text transform="matrix(1 0 0 1 827.8885 193.5556)"><tspan x="0" y="0" class="st38 st11 st39">Departmental </tspan><tspan x="0" y="21.6" class="st38 st11 st39">Purpose</tspan></text>
<text transform="matrix(1 0 0 1 42.0712 488.5562)"><tspan x="0" y="0" class="st11 st40">Work towards a Common Purpose</tspan><tspan x="58.7" y="28.8" class="st11 st40">Attend To Folk’s Needs</tspan></text>
<text transform="matrix(1 0 0 1 494.7243 488.5559)"><tspan x="0" y="0" class="st11 st40">Work towards your departmental purpose</tspan><tspan x="92.7" y="28.8" class="st11 st40">Attend to bosses needs</tspan></text>
<text transform="matrix(1 0 0 1 114.5556 63.5555)" class="st11 st40">Network Organisation</text>
<text transform="matrix(1 0 0 1 587.9574 63.5555)" class="st11 st40">Hierarchical Organisation</text>
<line class="st15" x1="847.9" y1="373.2" x2="847.3" y2="389.6"/>
<line class="st15" x1="588" y1="354.3" x2="537.3" y2="385.8"/>
</svg>
